<svg width="24" height="24" viewBox="0 0 24 24" fill="none" xmlns="http://www.w3.org/2000/svg">
<mask id="mask0_201_437" style="mask-type:alpha" maskUnits="userSpaceOnUse" x="0" y="0" width="24" height="24">
<path d="M0 0H24V24H0V0Z" fill="#C4C4C4"/>
</mask>
<g mask="url(#mask0_201_437)">
<path fill-rule="evenodd" clip-rule="evenodd" d="M13.8609 5.57964C16.2041 7.92279 16.2041 11.7218 13.8609 14.0649C11.5178 16.4081 7.71879 16.4081 5.37565 14.0649C3.0325 11.7218 3.0325 7.92279 5.37565 5.57964C7.71879 3.23649 11.5178 3.23649 13.8609 5.57964ZM16.0269 14.6125C18.3752 11.4791 18.1246 7.01488 15.2751 4.16543C12.1509 1.04123 7.08563 1.04123 3.96143 4.16543C0.837238 7.28962 0.837238 12.3549 3.96143 15.4791C6.88123 18.3989 11.4965 18.59 14.6381 16.0522L20.657 22.0711C21.0475 22.4616 21.6807 22.4616 22.0712 22.0711C22.4617 21.6805 22.4617 21.0474 22.0712 20.6569L16.0269 14.6125Z" fill="#222222"/>
</g>
</svg>
